<svg xmlns="http://www.w3.org/2000/svg" xmlns:xlink="http://www.w3.org/1999/xlink" width="500" zoomAndPan="magnify" viewBox="0 0 375 374.999991" height="500" preserveAspectRatio="xMidYMid meet" version="1.0"><defs><g/><clipPath id="ea9c89cdb6"><path d="M 1 13 L 15.640625 13 L 15.640625 80 L 1 80 Z M 1 13 " clip-rule="nonzero"/></clipPath><clipPath id="70b0734291"><rect x="0" width="16" y="0" height="103"/></clipPath></defs><g fill="#000000" fill-opacity="1"><g transform="translate(104.968431, 209.295001)"><g><path d="M -0.984375 16.96875 L -0.984375 16.265625 L 0.078125 16.265625 C 4.972656 16.265625 7.421875 11.878906 7.421875 3.109375 L 7.421875 -45.328125 C 7.421875 -47.066406 7.242188 -48.242188 6.890625 -48.859375 C 6.535156 -49.472656 5.816406 -49.78125 4.734375 -49.78125 L 1.984375 -49.78125 L 1.984375 -50.484375 L 22.203125 -50.484375 L 22.203125 -49.78125 L 19.515625 -49.78125 C 18.429688 -49.78125 17.710938 -49.472656 17.359375 -48.859375 C 17.003906 -48.242188 16.828125 -47.015625 16.828125 -45.171875 L 16.828125 0.28125 C 16.828125 4.519531 16.082031 7.851562 14.59375 10.28125 C 13.113281 12.707031 11.179688 14.425781 8.796875 15.4375 C 6.421875 16.457031 3.910156 16.96875 1.265625 16.96875 Z M -0.984375 16.96875 "/></g></g></g><g fill="#000000" fill-opacity="1"><g transform="translate(124.904861, 209.295001)"><g><path d="M 0.28125 0 L 0.28125 -0.703125 L 2.46875 -0.703125 C 3.789062 -0.703125 4.769531 -1.066406 5.40625 -1.796875 C 6.039062 -2.535156 6.644531 -3.941406 7.21875 -6.015625 L 19.015625 -50.484375 L 26.296875 -50.484375 L 39.3125 -4.59375 C 39.738281 -3.132812 40.222656 -2.117188 40.765625 -1.546875 C 41.304688 -0.984375 42.09375 -0.703125 43.125 -0.703125 L 43.6875 -0.703125 L 43.6875 0 L 24.53125 0 L 24.53125 -0.703125 L 27.21875 -0.703125 C 28.300781 -0.703125 29.03125 -0.898438 29.40625 -1.296875 C 29.789062 -1.703125 29.984375 -2.285156 29.984375 -3.046875 C 29.984375 -3.515625 29.898438 -4.085938 29.734375 -4.765625 C 29.566406 -5.453125 29.390625 -6.125 29.203125 -6.78125 L 26.296875 -18.453125 L 11.234375 -18.453125 L 8.484375 -7.921875 C 8.203125 -6.878906 7.96875 -5.910156 7.78125 -5.015625 C 7.59375 -4.117188 7.5 -3.414062 7.5 -2.90625 C 7.5 -2.101562 7.695312 -1.535156 8.09375 -1.203125 C 8.5 -0.867188 9.195312 -0.703125 10.1875 -0.703125 L 13.859375 -0.703125 L 13.859375 0 Z M 11.453125 -19.15625 L 26.09375 -19.15625 L 21.140625 -38.890625 C 20.710938 -40.628906 20.320312 -42.191406 19.96875 -43.578125 C 19.613281 -44.972656 19.273438 -46.472656 18.953125 -48.078125 C 18.671875 -46.617188 18.375 -45.273438 18.0625 -44.046875 C 17.757812 -42.816406 17.421875 -41.5 17.046875 -40.09375 Z M 11.453125 -19.15625 "/></g></g></g><g fill="#000000" fill-opacity="1"><g transform="translate(165.061272, 209.295001)"><g><path d="M 1.5625 0 L 1.5625 -0.703125 L 4.390625 -0.703125 C 5.796875 -0.703125 6.742188 -1.03125 7.234375 -1.6875 C 7.734375 -2.351562 7.984375 -3.648438 7.984375 -5.578125 L 7.984375 -45.109375 C 7.984375 -46.992188 7.769531 -48.242188 7.34375 -48.859375 C 6.925781 -49.472656 6.082031 -49.78125 4.8125 -49.78125 L 1.5625 -49.78125 L 1.5625 -50.484375 L 16.40625 -50.484375 L 36.984375 -9.75 L 36.984375 -45.109375 C 36.984375 -46.992188 36.769531 -48.242188 36.34375 -48.859375 C 35.914062 -49.472656 35.085938 -49.78125 33.859375 -49.78125 L 29.90625 -49.78125 L 29.90625 -50.484375 L 44.6875 -50.484375 L 44.6875 -49.78125 L 40.859375 -49.78125 C 39.585938 -49.78125 38.738281 -49.445312 38.3125 -48.78125 C 37.894531 -48.125 37.6875 -46.828125 37.6875 -44.890625 L 37.6875 0 L 32.515625 0 L 8.703125 -47.15625 L 8.703125 -5.578125 C 8.703125 -3.648438 8.910156 -2.351562 9.328125 -1.6875 C 9.753906 -1.03125 10.582031 -0.703125 11.8125 -0.703125 L 15.84375 -0.703125 L 15.84375 0 Z M 1.5625 0 "/></g></g></g><g fill="#000000" fill-opacity="1"><g transform="translate(207.055868, 209.295001)"><g><path d="M 1.5625 0 L 1.5625 -0.703125 L 3.1875 -0.703125 C 4.363281 -0.703125 5.28125 -0.972656 5.9375 -1.515625 C 6.59375 -2.054688 6.921875 -3.363281 6.921875 -5.4375 L 6.921875 -44.75 C 6.921875 -46.96875 6.601562 -48.359375 5.96875 -48.921875 C 5.332031 -49.492188 4.40625 -49.78125 3.1875 -49.78125 L 1.5625 -49.78125 L 1.5625 -50.484375 L 33.71875 -50.484375 L 34.15625 -37.828125 L 33.4375 -37.828125 L 33.234375 -40.796875 C 32.992188 -44.191406 32.15625 -46.535156 30.71875 -47.828125 C 29.28125 -49.128906 26.84375 -49.78125 23.40625 -49.78125 L 16.265625 -49.78125 L 16.265625 -26.71875 L 31.109375 -26.71875 L 31.109375 -26.015625 L 16.265625 -26.015625 L 16.265625 -0.703125 L 25.375 -0.703125 C 28.769531 -0.703125 31.175781 -1.335938 32.59375 -2.609375 C 34.007812 -3.890625 34.859375 -6.15625 35.140625 -9.40625 L 35.34375 -12.65625 L 36.0625 -12.65625 L 35.640625 0 Z M 1.5625 0 "/></g></g></g><g fill="#000000" fill-opacity="1"><g transform="translate(59.360511, 234.086865)"><g><path d="M 44.671875 -14.328125 L 6.5 -41.78125 L 6.5 -44.1875 L 44.671875 -71.640625 L 44.671875 -68.75 L 8.671875 -42.984375 L 44.671875 -17.21875 Z M 44.671875 -14.328125 "/></g></g></g><g fill="#000000" fill-opacity="1"><g transform="translate(302.391049, 141.127433)"><g><path d="M -44.515625 14.28125 L -6.484375 41.640625 L -6.484375 44.046875 L -44.515625 71.40625 L -44.515625 68.515625 L -8.640625 42.84375 L -44.515625 17.15625 Z M -44.515625 14.28125 "/></g></g></g><g transform="matrix(1, 0, 0, 1, 239, 136)"><g clip-path="url(#70b0734291)"><g clip-path="url(#ea9c89cdb6)"><g fill="#000000" fill-opacity="1"><g transform="translate(15.622, 22.721578)"><g><path d="M 0 -9.109375 L -13.390625 57.203125 L -14.15625 57.203125 L -0.75 -9.109375 Z M 0 -9.109375 "/></g></g></g></g></g></g></svg>